<svg xmlns="http://www.w3.org/2000/svg" viewBox="0 0 511.6 511.6" width="27" height="22"><path d="M302 328c31-13 55-31 73-54 18-22 27-47 27-73s-9-51-27-73c-18-23-42-41-73-54s-65-19-101-19-70 6-101 19-55 31-73 54a112 112 0 00-7 137c14 20 32 37 56 50a157 157 0 01-13 24 985 985 0 00-24 28l-1 2-1 1v5c0 3 1 5 3 6l6 3h1a239 239 0 00104-41 287 287 0 00151-15z"/><path d="M491 338a112 112 0 00-1-130c-14-20-33-37-58-50a147 147 0 01-13 115c-12 23-31 44-54 61-22 16-48 28-76 37a302 302 0 01-113 12c38 25 83 37 135 37 16 0 33-1 50-4a240 240 0 00104 41l6-2 4-6v-2-2l-1-2v-1a14 14 0 00-2-3 36 36 0 01-3-3 199 199 0 00-14-16 868 868 0 00-13-19l-6-12c23-14 42-31 55-51z"/></svg>