<svg xmlns="http://www.w3.org/2000/svg" viewBox="0 0 511.998 511"><path d="M511.84 226.781v-.004c-.836-7.976-4.969-15.328-11.336-20.199l-29.14-22.687 10.952-36.141a29.392 29.392 0 00-2.66-23.121 29.388 29.388 0 00-18.691-13.867l-36.66-8.559-4.68-37.351c-1.004-8-5.316-15.305-11.832-20.032-6.523-4.746-14.809-6.593-22.719-5.07l-36.972 7.09-19.473-32.223C320.879 1.793 304.605-3.05 290.785 3.34c-.973.45-1.91.988-2.726 1.566l-32.09 22.352-30.895-21.52a29.388 29.388 0 00-22.804-4.605c-7.883 1.672-14.797 6.594-18.965 13.492L163.84 46.844l-36.977-7.094c-7.918-1.516-16.195.332-22.707 5.066A29.358 29.358 0 0092.32 64.852l-4.68 37.355-38.773 9.05-1.82.595-.672.293c-14.086 6.16-21.133 21.136-16.75 35.605l10.95 36.14-30.391 23.641-1.762 1.531-.496.543c-10.2 11.141-10.598 27.993-.95 39.258l23.794 28.453-19.286 34.997-.77 1.75-.222.652c-4.808 14.37 1.742 29.988 15.235 36.32l34.078 15.992-3.192 37.508a29.365 29.365 0 007.41 22.063 29.385 29.385 0 0021.168 9.68l37.637.75 12.344 35.558a29.345 29.345 0 0015.738 17.14c7.36 3.278 15.84 3.364 23.278.235l34.69-14.621 27.231 29.058 1.426 1.27.55.41c5.38 3.973 11.665 5.918 17.892 5.918 7.878 0 15.66-3.117 21.351-9.191l25.742-27.465 34.696 14.625a29.381 29.381 0 0023.257-.235 29.356 29.356 0 0015.747-17.14l12.347-35.563 39.813-.793 1.89-.207.68-.136c14.844-3.028 25.09-16.508 23.828-31.352l-3.187-37.512 34.082-15.992a29.37 29.37 0 0015.398-17.45 29.377 29.377 0 00-2.203-23.167l-18.242-33.102 23.797-28.453a29.367 29.367 0 006.867-22.082zM257.563 383.773c-70.301 0-127.497-57.195-127.497-127.496 0-70.304 57.196-127.496 127.496-127.496 70.305 0 127.5 57.192 127.5 127.496 0 70.301-57.199 127.496-127.5 127.496zm0 0"/><path d="M257.563 158.8c-53.747 0-97.477 43.727-97.477 97.477 0 53.746 43.73 97.473 97.476 97.473 53.75 0 97.477-43.727 97.477-97.473 0-53.75-43.726-97.476-97.476-97.476zm57.875 79.118l-69.836 69.832a14.947 14.947 0 01-10.614 4.398c-3.84 0-7.683-1.464-10.613-4.398l-26.684-26.684c-5.863-5.863-5.863-15.367 0-21.23 5.86-5.86 15.364-5.86 21.227 0l16.074 16.074 59.219-59.219c5.86-5.863 15.367-5.863 21.226 0 5.864 5.86 5.864 15.364 0 21.227zm0 0"/></svg>